<?xml version="1.0" encoding="UTF-8" standalone="no"?>
<svg
   viewBox="0 0 576 576"
   version="1.1"
   id="svg8"
   sodipodi:docname="thumbnail.svg"
   inkscape:version="1.2.2 (b0a8486541, 2022-12-01)"
   width="576"
   height="576"
   xmlns:inkscape="http://www.inkscape.org/namespaces/inkscape"
   xmlns:sodipodi="http://sodipodi.sourceforge.net/DTD/sodipodi-0.dtd"
   xmlns="http://www.w3.org/2000/svg"
   xmlns:svg="http://www.w3.org/2000/svg"
   xmlns:rdf="http://www.w3.org/1999/02/22-rdf-syntax-ns#"
   xmlns:cc="http://creativecommons.org/ns#"
   xmlns:dc="http://purl.org/dc/elements/1.1/">
  <metadata
     id="metadata14">
    <rdf:RDF>
      <cc:Work
         rdf:about="">
        <dc:format>image/svg+xml</dc:format>
        <dc:type
           rdf:resource="http://purl.org/dc/dcmitype/StillImage" />
        <dc:title />
      </cc:Work>
    </rdf:RDF>
  </metadata>
  <defs
     id="defs12" />
  <sodipodi:namedview
     pagecolor="#ffffff"
     bordercolor="#666666"
     borderopacity="1"
     objecttolerance="10"
     gridtolerance="10"
     guidetolerance="10"
     inkscape:pageopacity="0"
     inkscape:pageshadow="2"
     inkscape:window-width="1920"
     inkscape:window-height="1018"
     id="namedview10"
     showgrid="false"
     inkscape:zoom="0.35355339"
     inkscape:cx="540.22958"
     inkscape:cy="-7.0710678"
     inkscape:window-x="0"
     inkscape:window-y="0"
     inkscape:window-maximized="1"
     inkscape:current-layer="svg8"
     showguides="true"
     inkscape:guide-bbox="true"
     inkscape:showpageshadow="2"
     inkscape:pagecheckerboard="0"
     inkscape:deskcolor="#d1d1d1">
    <sodipodi:guide
       position="544,659.52542"
       orientation="1,0"
       id="guide4488"
       inkscape:locked="false"
       inkscape:label=""
       inkscape:color="rgb(0,0,255)" />
    <sodipodi:guide
       position="-164.14465,32.215306"
       orientation="0,1"
       id="guide4490"
       inkscape:locked="false"
       inkscape:label=""
       inkscape:color="rgb(0,0,255)" />
    <inkscape:grid
       type="xygrid"
       id="grid303" />
  </sodipodi:namedview>
  <path
     d="M 0,0 H 576 V 576 H 0 Z"
     id="path2"
     inkscape:connector-curvature="0"
     style="fill:#000000;fill-opacity:1;stroke-width:1.125" />
  <path
     style="fill:#ffffff;fill-opacity:1;stroke-width:1.12004793"
     inkscape:connector-curvature="0"
     id="path4"
     d="m 146.99999,32 c -30.72286,0 -56.011688,22.451784 -60.641831,52.014836 2.326796,-0.202248 4.671458,-0.329216 7.049609,-0.329216 20.494562,0 39.248502,7.69217 53.592222,20.33717 14.34709,-12.642753 33.09881,-20.33717 53.59225,-20.33717 2.37815,0 4.72281,0.126968 7.04961,0.329216 C 203.01171,54.452908 177.72288,32 146.99999,32 Z M 93.407768,103.91043 C 59.374468,103.91043 32,131.45887 32,165.70845 c 0,17.16524 6.87767,32.64621 18.020389,43.82041 h 81.756061 c -8.01874,-12.69218 -12.68907,-27.71922 -12.68907,-43.82041 0,-17.34053 5.40834,-33.44059 14.59271,-46.71256 -10.76534,-9.40004 -24.82771,-15.08546 -40.272322,-15.08546 z m 107.184472,0 c -34.03331,0 -61.40779,27.54844 -61.40779,61.79802 0,17.16524 6.87767,32.64621 18.02041,43.82041 h 86.77476 C 255.12234,198.35466 262,182.87369 262,165.70845 262,131.45887 234.62554,103.91043 200.59224,103.91043 Z M 96.855534,229.75367 146.99999,248.10431 197.14447,229.75367 Z M 55.193156,236.0301 67.469129,277.20781 117.59349,258.86616 55.19204,236.0301 Z m 183.613704,0 -62.40147,22.83381 50.12549,18.3439 z m -91.80687,33.59566 -62.479597,22.86527 62.479597,27.94394 62.47963,-27.94394 z m -69.284695,41.95299 10.480631,35.15746 34.062314,-15.23602 z m 138.569425,0 -44.54297,19.92144 34.06233,15.23602 z m -69.28473,30.9889 -47.915911,21.43269 47.915911,24.10909 47.91593,-24.11022 -47.91593,-21.43268 z m -46.74023,44.63728 6.33057,21.23942 17.93777,-9.02701 -24.26834,-12.21354 z m 93.48049,0 -24.26834,12.21241 17.93776,9.02589 z m -46.74026,23.52033 -34.548,17.38434 5.09573,17.09334 29.45341,14.82029 29.45339,-14.82029 5.09461,-17.09334 -34.54914,-17.38659 z m 0,71.91042 -15.90796,8.00342 15.90796,53.3609 15.90798,-53.36203 -15.90798,-8.0034 z" />
  <g
     class=""
     id="g523"
     transform="matrix(0.50825135,0,0,0.51054271,298.65742,297.55134)">
    <path
       d="m 228.844,32.22 v 114.218 h 17.687 V 32.218 h -17.686 z m -108.25,0.624 C 105.087,32.844 92.5,45.43 92.5,60.937 92.5,76.444 105.087,89 120.594,89 c 12.655,0 23.34,-8.372 26.844,-19.875 h 44.937 v 77.313 h 17.688 v -95 H 147.03 C 143.142,40.601 132.768,32.845 120.594,32.845 Z m 193.25,0 c -15.507,0 -28.063,12.586 -28.063,28.093 0,12.124 7.677,22.45 18.44,26.376 v 59.124 h 17.655 V 87.844 c 11.596,-3.452 20.063,-14.193 20.063,-26.906 0,-15.508 -12.587,-28.094 -28.094,-28.094 z M 266.124,92.5 v 53.938 h 17.657 V 92.5 h -17.655 z m 188.532,4.03 c -15.507,0 -28.094,12.588 -28.094,28.095 0,13.083 8.948,24.074 21.063,27.188 v 27.468 h -92.938 v 17.657 h 110.624 v -46.342 c 10.223,-4.192 17.407,-14.233 17.407,-25.97 0,-15.507 -12.557,-28.094 -28.064,-28.094 z M 30.187,123.657 v 17.688 H 96.75 v 55.594 h 62.814 V 179.28 h -45.126 v -55.624 h -84.25 z m 147.032,40.47 v 159.718 h 159.81 V 164.125 H 177.22 Z m 17.56,15.655 h 17.657 v 78.595 l 32.407,32.406 h 75.28 v 17.658 H 237.5 l -2.594,-2.594 -10.75,-10.75 c -1.033,7.385 -7.36,13.062 -15.03,13.062 -8.392,0 -15.19,-6.796 -15.19,-15.187 0,-7.682 5.696,-13.98 13.095,-15 l -9.655,-9.658 -2.594,-2.593 V 179.78 Z m 54.94,0.157 h 17.686 v 55.313 h 52.53 l 0.002,17.688 H 249.72 v -73 z M 53.124,217.375 v 89.969 c -11.49,3.512 -19.844,14.198 -19.844,26.844 0,15.505 12.557,28.093 28.064,28.093 15.507,0 28.093,-12.587 28.093,-28.092 0,-12.195 -7.79,-22.564 -18.656,-26.438 v -72.72 h 88.782 V 217.376 H 53.124 Z m 301.563,0 v 17.656 h 53.968 v -17.655 h -53.97 z m 99.968,21.97 c -10.898,0 -20.342,6.21 -25,15.28 h -74.97 l 0.002,17.688 H 427 c 2.325,13.168 13.824,23.187 27.656,23.187 15.507,0 28.063,-12.588 28.063,-28.094 0,-15.507 -12.557,-28.062 -28.064,-28.062 z m -349.062,15.28 v 17.688 h 53.97 v -17.688 z m 17.156,36.47 v 84.217 c -11.498,3.513 -19.875,14.2 -19.875,26.844 0,15.506 12.587,28.094 28.094,28.094 15.506,0 28.06,-12.588 28.06,-28.094 0,-12.194 -7.766,-22.564 -18.624,-26.437 v -66.94 h 19.156 v -17.686 h -36.81 z m 231.938,0 v 17.686 h 45.156 v 95.283 c -11.323,3.624 -19.53,14.26 -19.53,26.78 -0.002,15.506 12.585,28.063 28.092,28.063 15.507,0 28.063,-12.557 28.063,-28.062 0,-12.32 -7.935,-22.778 -18.97,-26.563 V 291.095 H 354.684 Z M 192.375,341.53 v 54.033 h 17.688 V 341.53 Z m 36.47,0 v 86.564 c -11.013,3.794 -18.94,14.233 -18.94,26.53 0,15.506 12.588,28.095 28.095,28.095 15.507,0 28.063,-12.59 28.063,-28.095 0,-12.53 -8.203,-23.14 -19.532,-26.75 V 341.53 Z m 37.28,0 v 54.033 h 17.688 l -0.032,-54.032 h -17.655 z m 38.094,0 v 140.064 h 17.655 V 341.53 H 304.22 Z"
       fill="#ffffff"
       fill-opacity="1"
       id="path521" />
  </g>
</svg>
